# xmcd
#
# Track frame offsets:
#	150
#	20597
#	38833
#	52266
#	65957
#	81405
#	99915
#	118894
#	136774
#	154900
#
# Disc length: 2291 seconds
#
# Revision: 2
# Processed by: cddbd v1.5.1PL0 Copyright (c) Steve Scherf et al.
# Submitted via: audiograbber 1.83.01
#
DISCID=8e08f10a
DTITLE=Various Artist - VA - Juice Magazine 045
DYEAR=2004
DGENRE=Hip-Hop
TTITLE0=Pitbull feat. Lil Jon - 3Q5 Anthem
TTITLE1=213 Aka Nate Dogg, Snoop Dogg and Warren G - Absolutely
TTITLE2=Theodore Unit feat. Ghostface and Trife - Paychecks
TTITLE3=Terror Squad - Yeah, Yeah, Yeah
TTITLE4=Fat Jack feat. Swollen Members - Warriors
TTITLE5=Mr. Complex feat. Vast Aire and Pearl - Calm Down
TTITLE6=Killa Kela - 4 Commandments
TTITLE7=Sharkey feat. Jean Grae - Summer In The City (Lovin' It)
TTITLE8=Mnemonic - Negativ
TTITLE9=Juse Ju - Du Fi***t Mit Dem Falschen
EXTD=
EXTT0=
EXTT1=
EXTT2=
EXTT3=
EXTT4=
EXTT5=
EXTT6=
EXTT7=
EXTT8=
EXTT9=
PLAYORDER=
